# xmcd
#
# Track frame offsets: 
#        150
#        9959
#        24685
#        38989
#        52172
#        66835
#        75262
#        88384
#        97908
#        109337
#        118906
#
# Disc length: 1788 seconds
#
# Revision: 2
# Processed by: cddbd v1.5.2PL0 Copyright (c) Steve Scherf et al.
# Submitted via: ExactAudioCopyFreeDBPlugin 1.0
#
DISCID=8d06fa0b
DTITLE=Glen Campbell - 1968 - Bobbie Gentry and Glen Campbell
DYEAR=1968
DGENRE=Country
TTITLE0=Less of Me
TTITLE1=Little Green Apples
TTITLE2=Gentle on My Mind
TTITLE3=Heart to Heart Talk
TTITLE4=My Elusive Dreams
TTITLE5=(It's Only Your) Imagination
TTITLE6=Mornin' Glory
TTITLE7=Terrible Tangled Web
TTITLE8=Sunday Mornin'
TTITLE9=Let It Be Me
TTITLE10=Scarborough Fair - Canticle
EXTD=from vinyl
EXTT0=
EXTT1=
EXTT2=
EXTT3=
EXTT4=
EXTT5=
EXTT6=
EXTT7=
EXTT8=
EXTT9=
EXTT10=
PLAYORDER=
